<svg xmlns="http://www.w3.org/2000/svg" xmlns:xlink="http://www.w3.org/1999/xlink" viewBox="0 0 274.6 539.16"><defs><style>.cls-1{fill:#fceb04;}.cls-1,.cls-2,.cls-3{fill-rule:evenodd;}.cls-2{fill:url(#linear-gradient);}.cls-3{fill:#00a657;}.cls-4{fill:#151616;}</style><linearGradient id="linear-gradient" x1="140.01" y1="41.48" x2="140.01" y2="516.48" gradientUnits="userSpaceOnUse"><stop offset="0" stop-color="#fff200" stop-opacity="0.6"/><stop offset="0.08" stop-color="#e9ec08" stop-opacity="0.63"/><stop offset="0.23" stop-color="#afda1c" stop-opacity="0.73"/><stop offset="0.44" stop-color="#51bf3c" stop-opacity="0.87"/><stop offset="0.6" stop-color="#00a758"/><stop offset="0.74" stop-color="#00a758"/><stop offset="1" stop-color="#00a758"/></linearGradient></defs><g id="Layer_2" data-name="Layer 2"><g id="Layer_1-2" data-name="Layer 1"><path id="base_front" data-name="base front" class="cls-1" d="M9.82,190.71S5.68,176.09,5.51,172s-2.07-7.68,1.67-15,24.58-37.33,26.25-49.49S31,53.09,29.89,40.34,27.25,21,27.05,18.42s6-5.15,9.5-4.7S49.76,9.89,51,8.11,62.32-3.43,75.16,2.18s24.29,16.24,66.47,14.18S191.32,9.61,206.51,2.1s17.24,7.31,37.51,10c0,0,11.79.45,10.68,5.81S243,72.79,249.54,118c0,0,8.62,18.73,15,26.81s9.47,17.63,8,22.31c0,0,6.09,5-2.72,17,0,0-2,37-5.05,58.59s-4.87,57.94-3.37,64.69-9.75,17.23-2.44,30.19,1.31,13.29,1.14,18.57.36,10.85,1.5,12.92,3.17,15.76,3.17,19.14,2.44,21.37,2.44,27.55,1.3,12.56,2.07,16.86,4.48,31.7,4.48,38.81,3.4,26.82,3.2,31.32,6.18,20.07-32.26,26.62-78.74,9-105.36,9.75S32.13,531,17.5,524.1,1.4,508.54,3.44,501.42s4.51-48,5.64-56.07,4.51-26.62,4.11-29.82,2.27-31.86,4.51-36.74-1.87-13.32,1.5-19.5-7.31-9.55,5.25-28c0,0,3.37-3.37-1.68-10.49s-5.44-16.58-5-20.07S17.33,259,16,247.92s-6.21-57.21-6.21-57.21Z" transform="translate(-2.71)"/><path id="design3_front" data-name="design3 front" class="cls-2" d="M9.82,190.71l-.14-.51c4.53.32,9.1.74,13.66,1.34a232,232,0,0,1,58.34,0,231.9,231.9,0,0,1,58.33,0,232,232,0,0,1,58.34,0,231.75,231.75,0,0,1,58.31,0q6.42-.81,12.84-1.28c-.08,1.28-.17,2.75-.28,4.34-4.17-.31-8.37-.71-12.56-1.25a233.16,233.16,0,0,1-58.31,0,233.4,233.4,0,0,1-58.34,0,233.32,233.32,0,0,1-58.33,0,233.4,233.4,0,0,1-58.34,0c-4.37.54-8.73,1-13.12,1.28Zm-.63-2.26c-.34-1.22-.76-2.81-1.21-4.57a236.93,236.93,0,0,1,44.53,1.33,234.35,234.35,0,0,1,58.34,0,234.27,234.27,0,0,1,58.33,0,234.11,234.11,0,0,1,58.31,0,233.63,233.63,0,0,1,42.61-1.44c-.09.11-.15.2-.23.31s-.09,1.65-.26,4.42a232,232,0,0,1-42.12-1.44,233.16,233.16,0,0,1-58.31,0,233.32,233.32,0,0,1-58.33,0,233.4,233.4,0,0,1-58.34,0,237,237,0,0,1-43.32,1.39Zm-1.84-7c-.39-1.62-.79-3.29-1.1-4.79q8.54.42,17.09,1.53a232,232,0,0,1,58.34,0,231.9,231.9,0,0,1,58.33,0,232,232,0,0,1,58.34,0,231.75,231.75,0,0,1,58.31,0c5.75-.74,11.54-1.25,17.29-1.53a24.26,24.26,0,0,1-2.27,4.73c-5-.28-10-.77-15-1.39a233.16,233.16,0,0,1-58.31,0A233.4,233.4,0,0,1,140,180a233.32,233.32,0,0,1-58.33,0,233.4,233.4,0,0,1-58.34,0q-8,1-16,1.45Zm-1.44-6.58a20.2,20.2,0,0,1-.4-2.86c0-.43-.06-.85-.11-1.28a233.45,233.45,0,0,1,47.11,1.14,233.4,233.4,0,0,1,58.34,0,233.32,233.32,0,0,1,58.33,0,233.16,233.16,0,0,1,58.31,0,230.19,230.19,0,0,1,47-1.14,10.66,10.66,0,0,1-.09,4.11,234.47,234.47,0,0,1-46.91-1.13,233.16,233.16,0,0,1-58.31,0,233.32,233.32,0,0,1-58.33,0,233.4,233.4,0,0,1-58.34,0,235.07,235.07,0,0,1-46.6,1.16Zm-.85-6.66a16,16,0,0,1,0-5q9.14.42,18.28,1.56a234.83,234.83,0,0,1,58.34,0,234.75,234.75,0,0,1,58.33,0,234.83,234.83,0,0,1,58.34,0,234.59,234.59,0,0,1,58.31,0c5.41-.68,10.83-1.16,16.21-1.45a9.39,9.39,0,0,1-.28,3.8,4.41,4.41,0,0,1,.85,1c-5.58-.31-11.2-.79-16.78-1.5a233.16,233.16,0,0,1-58.31,0,233.4,233.4,0,0,1-58.34,0,233.32,233.32,0,0,1-58.33,0,233.4,233.4,0,0,1-58.34,0q-9.13,1.16-18.28,1.59Zm.36-6.75a24.23,24.23,0,0,1,1.65-4.25,234.1,234.1,0,0,1,45.44,1.28,233.4,233.4,0,0,1,58.34,0,233.32,233.32,0,0,1,58.33,0,233.16,233.16,0,0,1,58.31,0,231.84,231.84,0,0,1,44-1.36,28.45,28.45,0,0,1,1.19,4.47,236,236,0,0,1-45.16-1.27,234.59,234.59,0,0,1-58.31,0,234.75,234.75,0,0,1-58.33,0,234.83,234.83,0,0,1-58.34,0,236.25,236.25,0,0,1-47.09,1.13Zm3.09-6.83c.74-1.25,1.65-2.75,2.7-4.42,4,.28,8.08.68,12.13,1.19a234.83,234.83,0,0,1,58.34,0,234.75,234.75,0,0,1,58.33,0,234.83,234.83,0,0,1,58.34,0,234.59,234.59,0,0,1,58.31,0c3.85-.48,7.71-.85,11.56-1.16a38.59,38.59,0,0,1,2.22,4.33q-6.9-.47-13.78-1.33a233.16,233.16,0,0,1-58.31,0,233.4,233.4,0,0,1-58.34,0,233.32,233.32,0,0,1-58.33,0,233.4,233.4,0,0,1-58.34,0c-4.93.63-9.89,1.08-14.83,1.39Zm3.75-6.12,3.17-5.1a234.93,234.93,0,0,1,37.08,1.7,233.4,233.4,0,0,1,58.34,0,233.32,233.32,0,0,1,58.33,0,233.16,233.16,0,0,1,58.31,0,234.28,234.28,0,0,1,36-1.73c.37.51.71,1,1.08,1.44a42,42,0,0,1,2.64,3.72,236.58,236.58,0,0,1-39.69-1.59,234.59,234.59,0,0,1-58.31,0,234.75,234.75,0,0,1-58.33,0,234.83,234.83,0,0,1-58.34,0,236.82,236.82,0,0,1-40.25,1.56Zm4.93-8c.59-1,1.22-2,1.84-3,1.45.14,2.86.31,4.31.48a234.83,234.83,0,0,1,58.34,0A234.75,234.75,0,0,1,140,138a234.83,234.83,0,0,1,58.34,0,234.59,234.59,0,0,1,58.31,0c1-.11,2.07-.26,3.09-.37.57,1,1.13,1.87,1.7,2.75-1.59-.17-3.17-.34-4.79-.54a233.16,233.16,0,0,1-58.31,0,233.4,233.4,0,0,1-58.34,0,233.32,233.32,0,0,1-58.33,0,233.4,233.4,0,0,1-58.34,0c-2,.26-4.11.48-6.15.68Zm3.14-5.19c1.08-1.78,2.16-3.62,3.21-5.47a237.13,237.13,0,0,1,29,1.85,232,232,0,0,1,58.34,0,231.9,231.9,0,0,1,58.33,0,231.75,231.75,0,0,1,58.31,0,236.35,236.35,0,0,1,27.95-1.85c.94,1.82,2,3.69,3,5.5a229.69,229.69,0,0,1-31-1.84,231.75,231.75,0,0,1-58.31,0,231.9,231.9,0,0,1-58.33,0,232,232,0,0,1-58.34,0,230.22,230.22,0,0,1-32.18,1.81Zm5-8.64c.46-.82.88-1.64,1.34-2.47a233.34,233.34,0,0,1,55,.4,234.75,234.75,0,0,1,58.33,0,234.83,234.83,0,0,1,58.34,0,233.44,233.44,0,0,1,54.14-.48c.43.85.88,1.73,1.33,2.66a232.37,232.37,0,0,1-55.47-.34,233.4,233.4,0,0,1-58.34,0,233.32,233.32,0,0,1-58.33,0,232.56,232.56,0,0,1-56.36.23Zm2.53-4.76c1-1.85,1.81-3.63,2.58-5.33,7.37.23,14.71.79,22.08,1.73a232,232,0,0,1,58.34,0,234.2,234.2,0,0,1,27.83-1.85c1,.12,1.59.17,1.59.17.4,0,.74-.11,1.1-.17a240.49,240.49,0,0,1,27.81,1.85,231.75,231.75,0,0,1,58.31,0c7.29-.94,14.57-1.5,21.86-1.73.05.48.11.93.19,1.39,0,0,.71,1.53,1.88,3.94a227,227,0,0,1-23.93-1.79,231.75,231.75,0,0,1-58.31,0,231.9,231.9,0,0,1-58.33,0,232,232,0,0,1-58.34,0,224.69,224.69,0,0,1-24.66,1.79Zm3.68-8a39,39,0,0,0,1.31-3.71,232.64,232.64,0,0,1,48.84,1,240.3,240.3,0,0,1,26.64-1.81,118.63,118.63,0,0,0,17.52,5,232.1,232.1,0,0,1-44.16-1.34,233.65,233.65,0,0,1-50.15.88Zm1.76-5.58c.06-.31.11-.6.14-.88a39.51,39.51,0,0,0,.34-4.14c6.24.28,12.47.79,18.74,1.59a233.19,233.19,0,0,1,43.62-1.39,64.94,64.94,0,0,0,7.63,4,233,233,0,0,1-51.25-.8Q42.9,108,33.29,108.37Zm.54-7.6c0-1.25,0-2.58,0-4a235.67,235.67,0,0,1,47.85,1.08c2.12-.25,4.25-.51,6.37-.71a37.34,37.34,0,0,0,4.06,3.63c-3.49-.28-7-.65-10.43-1.08a234.19,234.19,0,0,1-47.85,1.08Zm0-5.81c-.06-1.59-.11-3.26-.17-5q9.43.44,18.88,1.62A233.35,233.35,0,0,1,82.7,89.72c.76,1.33,1.5,2.58,2.26,3.68.43.6.86,1.19,1.34,1.76a233.27,233.27,0,0,1-33.79-1.79Q43.15,94.57,33.8,95Zm-.28-7.6c-.06-1.3-.15-2.6-.2-3.94a233.45,233.45,0,0,1,46.6.85l1,2.13a234.27,234.27,0,0,1-47.42,1Zm-.32-5.75c-.11-1.67-.19-3.37-.31-5.08q9.78.43,19.62,1.65A229.63,229.63,0,0,1,76.6,76.39c.74,1.87,1.48,3.69,2.21,5.42A234.75,234.75,0,0,1,52.51,80q-9.66,1.24-19.31,1.62Zm-.51-7.71c-.08-1.25-.17-2.52-.28-3.77a232,232,0,0,1,41.92.17c.4,1.1.8,2.21,1.22,3.31a232.45,232.45,0,0,1-42.86.29Zm-.39-5.61c-.14-1.76-.29-3.49-.43-5.16,6.89.25,13.75.79,20.64,1.67C59,64,65.46,63.44,72,63.15l1.7,5.16c-7.05-.25-14.08-.82-21.14-1.7C45.76,67.46,39,68,32.3,68.29Zm-.65-7.86c-.09-1.22-.2-2.41-.29-3.6a234.06,234.06,0,0,1,38.55-.28c.4,1.36.82,2.72,1.25,4.08a232.73,232.73,0,0,1-39.51-.2Zm-.46-5.5c-.17-1.84-.31-3.6-.48-5.24,7.28.23,14.54.82,21.8,1.73C57.67,50.77,62.85,50.29,68,50q.69,2.39,1.36,4.77c-5.61-.29-11.25-.8-16.86-1.51q-10.68,1.32-21.32,1.7Zm-.71-8-.31-3.37a234.19,234.19,0,0,1,35.92-.68c.39,1.53.82,3.06,1.24,4.62a232.54,232.54,0,0,1-36.85-.57ZM30,41.58l-.11-1.24c-.14-1.42-.26-2.78-.4-4.06,7.65.2,15.34.8,23,1.73q6-.72,12-1.19c.34,1.42.71,2.84,1.1,4.31Q59,40.67,52.51,39.85c-7.51.94-15,1.53-22.51,1.73Zm-.82-8.13c-.14-1.11-.26-2.16-.4-3.12a234.19,234.19,0,0,1,33.9-1c.37,1.58.8,3.26,1.22,5a234.06,234.06,0,0,1-34.72-.88Zm-.68-5.22c-.28-2.12-.57-3.91-.79-5.38a244,244,0,0,1,24.8,1.78c3-.37,5.89-.68,8.87-.93.26,1.19.57,2.46.88,3.8-3.26-.29-6.52-.63-9.75-1a233.75,233.75,0,0,1-24,1.76Zm-1.28-8.39c-.08-.57-.14-1.05-.17-1.42a2.15,2.15,0,0,1,.43-1.33,231,231,0,0,1,32.17-1.25c.26,1.22.62,3,1.14,5.25a232.67,232.67,0,0,1-33.57-1.25Zm3.43-5a12.19,12.19,0,0,1,5.9-1.08c2.21.31,7-1.36,10.52-3.06q2.72.25,5.44.59c2.21-.25,4.42-.51,6.63-.73a11.33,11.33,0,0,0,.09,3.31c-2.24-.2-4.48-.45-6.72-.73q-10.93,1.35-21.86,1.7Zm20.53-7a21.78,21.78,0,0,1,7.39-5.41c6.69.17,13.36.65,20.05,1.39l4.73,2.38c-.57-.06-1.13-.12-1.67-.2q-8.55,1.06-17,1.53a5.13,5.13,0,0,0-3.77.14c-3.23.14-6.46.17-9.69.17Zm12.3-7A19,19,0,0,1,73,1.39c-3.17-.14-6.32-.31-9.49-.57Zm27,8.79a82.51,82.51,0,0,0,13.21,4.28q-7.82.72-15.65.93c-6.86-1.84-12.69-3.74-17-5.15q9.7-.43,19.39-.06ZM115,15.79a147.12,147.12,0,0,0,16,.82c3,.26,6,.57,9,1A230.58,230.58,0,0,1,179.81,16,271.51,271.51,0,0,1,153,20.66c-4.34-.31-8.68-.71-13-1.27q-10.55,1.32-21,1.7a209.35,209.35,0,0,1-25.09-4.73q10.55-.78,21.15-.57ZM173,13.55a97.21,97.21,0,0,0,16.78-4c4.51-.14,9-.2,13.49-.08-4.67,1.61-10.65,3.4-17.49,5.07-4.25-.23-8.53-.57-12.78-1ZM198.46,6c1.68-.77,3.32-1.59,5-2.44,6.15-.62,12.3-1,18.48-1.16C224.6,4,227.32,6,230.78,7.82c-3.52.06-7,0-10.55-.08-1.58-2.44-4.5-3.86-9.18-1.45a17.49,17.49,0,0,1-1.73.85c-3.6-.28-7.23-.65-10.86-1.1Zm9.75-4.71c4.09-1.67,7.21-1.61,10.07-.65-3.37.28-6.72.51-10.07.65Zm28.27,9A40,40,0,0,0,244,12.05s7,.28,9.72,2.86a233.85,233.85,0,0,1-26.25-1.81c-1.9.22-3.8.45-5.7.65a10.7,10.7,0,0,0-.31-3.18c2,.2,4,.43,6,.68,3-.37,6-.68,9-.93Zm18.28,7a3.34,3.34,0,0,1-.06.51c-.08.37-.22,1-.39,1.81a231.37,231.37,0,0,1-34,1.45c.48-2.44.82-4.28,1.05-5.3a228.83,228.83,0,0,1,33.39,1.53Zm-1.08,5.5c-.28,1.53-.62,3.34-1,5.41a235.1,235.1,0,0,1-25.2-1.79c-2.78.35-5.56.66-8.36.91.25-1.27.48-2.46.68-3.57,2.58.23,5.13.51,7.68.82a230.41,230.41,0,0,1,26.19-1.78Zm-1.36,7.59c-.17.91-.31,1.9-.48,2.89a231.78,231.78,0,0,1-34.13,1.08c.37-1.78.74-3.51,1-5.13a234,234,0,0,1,33.56,1.16Zm-.93,5.81c-.26,1.7-.51,3.49-.77,5.36q-11.56-.3-23.13-1.76c-3.74.49-7.48.85-11.22,1.14.31-1.36.62-2.72.9-4,3.43.29,6.89.63,10.32,1a234.24,234.24,0,0,1,23.9-1.76Zm-1,7.37c-.14,1.08-.29,2.16-.43,3.29a231.21,231.21,0,0,1-35.2.71c.39-1.61.79-3.23,1.16-4.82a230.79,230.79,0,0,1,34.47.82Zm-.74,6.07c-.2,1.7-.4,3.46-.57,5.24q-10.75-.33-21.54-1.7c-4.85.63-9.72,1.08-14.6,1.39.4-1.5.8-3,1.19-4.5,4.48.28,9,.73,13.41,1.3,7.37-.94,14.74-1.5,22.11-1.73Zm-.76,7.17c-.12,1.16-.2,2.35-.32,3.57a235.17,235.17,0,0,1-37.44.37c.45-1.47.88-2.95,1.3-4.42a231.18,231.18,0,0,1,36.46.48Zm-.51,6.24c-.15,1.7-.26,3.43-.37,5.19q-10.22-.39-20.47-1.68-9.44,1.2-18.88,1.62c.6-1.62,1.16-3.29,1.7-5q8.59.42,17.18,1.53,10.42-1.32,20.84-1.7Zm-.49,7.06c-.05,1.22-.11,2.46-.17,3.71a232.46,232.46,0,0,1-41.21-.09c.48-1.19,1-2.43,1.47-3.68a231.27,231.27,0,0,1,39.91.06Zm-.25,6.35c-.06,1.7-.12,3.4-.14,5.13-6.66-.26-13.3-.8-20-1.65a229.23,229.23,0,0,1-24.94,1.79c1-1.65,1.87-3.43,2.75-5.33,7.39.2,14.79.79,22.19,1.73,6.69-.85,13.41-1.39,20.1-1.67Zm-.17,7v3.77a234.24,234.24,0,0,1-47.79-.82c.51-.74,1-1.54,1.5-2.33a234.05,234.05,0,0,1,46.29-.62Zm0,6.4c0,1.7.05,3.41.11,5.13-6.69-.28-13.38-.82-20.07-1.67A235,235,0,0,1,193,95.16a64,64,0,0,0,4.4-5.44,232.21,232.21,0,0,1,30.13,1.84c6.66-.85,13.3-1.39,20-1.65Zm.17,7c0,1.24.11,2.49.2,3.74a233.16,233.16,0,0,1-49.47-.94c-3.83.46-7.62.85-11.45,1.14a44.51,44.51,0,0,0,4.22-3.77c2.41.22,4.82.51,7.23.79a234.63,234.63,0,0,1,49.27-1Zm.37,6.38c.11,1.72.25,3.45.42,5.18q-10.46-.37-20.92-1.7a233.26,233.26,0,0,1-51.48.77,56.25,56.25,0,0,0,7.06-3.91,232.43,232.43,0,0,1,44.42,1.33c6.83-.88,13.66-1.42,20.5-1.67Zm.62,7.08c.11,1.19.25,2.38.4,3.55a235.12,235.12,0,0,1-50.66-.83,234.49,234.49,0,0,1-44.62,1.31,109.58,109.58,0,0,0,17.78-5,237.69,237.69,0,0,1,26.84,1.81,234.68,234.68,0,0,1,50.26-.88Zm20.44,86.74c-.09,1.53-.2,3.15-.31,4.85a233.37,233.37,0,0,1-41.25-1.5,234.11,234.11,0,0,1-58.31,0,234.27,234.27,0,0,1-58.33,0,234.35,234.35,0,0,1-58.34,0,233.34,233.34,0,0,1-41.5,1.5l-.51-4.82a238.14,238.14,0,0,1,42,1.47,235.31,235.31,0,0,1,58.34,0,235.23,235.23,0,0,1,58.33,0,235.07,235.07,0,0,1,58.31,0,236,236,0,0,1,41.56-1.5Zm-.46,6.64c-.11,1.36-.2,2.74-.31,4.16-3.88-.28-7.74-.68-11.62-1.16a233.16,233.16,0,0,1-58.31,0,233.4,233.4,0,0,1-58.34,0,233.32,233.32,0,0,1-58.33,0,233.4,233.4,0,0,1-58.34,0c-3.91.48-7.8.88-11.71,1.19l-.42-4.22c4,.28,8.08.71,12.13,1.22a232,232,0,0,1,58.34,0,231.9,231.9,0,0,1,58.33,0,232,232,0,0,1,58.34,0,231.75,231.75,0,0,1,58.31,0q6-.76,11.93-1.19Zm-.51,6.71c-.14,1.62-.25,3.26-.39,4.94a233.15,233.15,0,0,1-40.2-1.56,234.11,234.11,0,0,1-58.31,0,234.27,234.27,0,0,1-58.33,0,234.35,234.35,0,0,1-58.34,0,234.52,234.52,0,0,1-40.06,1.56l-.53-4.94A234.74,234.74,0,0,1,52.51,212a235.31,235.31,0,0,1,58.34,0,235.23,235.23,0,0,1,58.33,0,235.07,235.07,0,0,1,58.31,0,231.8,231.8,0,0,1,40.59-1.53Zm-.56,6.72c-.12,1.36-.23,2.69-.34,4-3.52-.29-7-.63-10.52-1.08a233.16,233.16,0,0,1-58.31,0,233.4,233.4,0,0,1-58.34,0,233.32,233.32,0,0,1-58.33,0,233.4,233.4,0,0,1-58.34,0c-3.43.42-6.86.79-10.26,1.08l-.46-4q5.37.42,10.72,1.11a232,232,0,0,1,58.34,0,231.9,231.9,0,0,1,58.33,0,232,232,0,0,1,58.34,0,231.75,231.75,0,0,1,58.31,0c3.63-.46,7.26-.83,10.86-1.14Zm-.57,6.61c-.17,1.7-.34,3.37-.51,5a236.21,236.21,0,0,1-38.95-1.61,234.11,234.11,0,0,1-58.31,0,234.27,234.27,0,0,1-58.33,0,234.35,234.35,0,0,1-58.34,0,235.42,235.42,0,0,1-38.61,1.64l-.57-5.1a239,239,0,0,1,39.18,1.61,235.31,235.31,0,0,1,58.34,0,235.23,235.23,0,0,1,58.33,0,235.07,235.07,0,0,1,58.31,0A232.69,232.69,0,0,1,267,223.77Zm-.68,6.88c-.14,1.31-.28,2.58-.43,3.83-3.06-.28-6.12-.59-9.18-1a232.22,232.22,0,0,1-58.31,0,232.45,232.45,0,0,1-58.34,0,232.37,232.37,0,0,1-58.33,0,232.45,232.45,0,0,1-58.34,0c-2.95.37-5.9.68-8.84,1l-.4-3.77c3.09.29,6.15.6,9.24,1a232.92,232.92,0,0,1,58.34,0,232.85,232.85,0,0,1,58.33,0,232.92,232.92,0,0,1,58.34,0,232.69,232.69,0,0,1,58.31,0c3.2-.39,6.41-.73,9.61-1Zm-.74,6.44c-.2,1.78-.42,3.51-.65,5.16a234.07,234.07,0,0,1-37.39-1.67,234.11,234.11,0,0,1-58.31,0,234.27,234.27,0,0,1-58.33,0,234.35,234.35,0,0,1-58.34,0,234.66,234.66,0,0,1-37.14,1.7c-.17-1.59-.36-3.32-.56-5.22a237,237,0,0,1,37.7,1.67,235.31,235.31,0,0,1,58.34,0,235.23,235.23,0,0,1,58.33,0,235.07,235.07,0,0,1,58.31,0,235.33,235.33,0,0,1,38-1.64Zm-.9,7.09c-.17,1.16-.32,2.32-.46,3.51-2.49-.23-5-.51-7.51-.82a232.22,232.22,0,0,1-58.31,0,232.45,232.45,0,0,1-58.34,0,232.37,232.37,0,0,1-58.33,0,232.45,232.45,0,0,1-58.34,0c-2.47.31-4.9.59-7.34.82-.12-.93-.26-2.13-.43-3.49,2.61.23,5.19.51,7.77.85a232.92,232.92,0,0,1,58.34,0,232.85,232.85,0,0,1,58.33,0,232.92,232.92,0,0,1,58.34,0,232.69,232.69,0,0,1,58.31,0c2.66-.34,5.3-.62,8-.87Zm-.77,6.23c-.2,1.7-.37,3.49-.57,5.27a232.08,232.08,0,0,1-35.8-1.73,233.16,233.16,0,0,1-58.31,0,233.32,233.32,0,0,1-58.33,0,233.4,233.4,0,0,1-58.34,0,232.86,232.86,0,0,1-35.86,1.73c-.11-2-.25-3.77-.4-5.27a235.31,235.31,0,0,1,36.26,1.7,234.83,234.83,0,0,1,58.34,0,234.75,234.75,0,0,1,58.33,0,234.59,234.59,0,0,1,58.31,0,236.91,236.91,0,0,1,36.37-1.7Zm-.74,7.29c-.11,1.07-.22,2.15-.31,3.26-2-.2-4.08-.43-6.15-.71a232.22,232.22,0,0,1-58.31,0,232.45,232.45,0,0,1-58.34,0,232.37,232.37,0,0,1-58.33,0,232.45,232.45,0,0,1-58.34,0c-2.13.28-4.28.51-6.41.74-.05-1.14-.11-2.24-.17-3.29,2.19.22,4.4.45,6.58.73a232.92,232.92,0,0,1,58.34,0,232.85,232.85,0,0,1,58.33,0,232.92,232.92,0,0,1,58.34,0,232.69,232.69,0,0,1,58.31,0c2.15-.28,4.31-.51,6.46-.73Zm-.54,6.06c-.14,1.76-.28,3.55-.42,5.33a231.69,231.69,0,0,1-34.67-1.76,233.16,233.16,0,0,1-58.31,0,233.32,233.32,0,0,1-58.33,0,233.4,233.4,0,0,1-58.34,0,232.06,232.06,0,0,1-35.21,1.76c-.08-1.81-.14-3.6-.22-5.33a236.28,236.28,0,0,1,35.43,1.76,232,232,0,0,1,58.34,0,231.9,231.9,0,0,1,58.33,0,231.75,231.75,0,0,1,58.31,0,231.85,231.85,0,0,1,35.09-1.76Zm-.56,7.43c-.09,1-.14,2-.2,3-1.73-.17-3.43-.37-5.16-.59a232.69,232.69,0,0,1-58.31,0,232.92,232.92,0,0,1-58.34,0,232.85,232.85,0,0,1-58.33,0,232.92,232.92,0,0,1-58.34,0c-2,.25-3.91.48-5.87.68,0-1.05,0-2.13-.11-3.18q3,.3,6,.68a234.35,234.35,0,0,1,58.34,0,234.27,234.27,0,0,1,58.33,0,234.35,234.35,0,0,1,58.34,0,234.11,234.11,0,0,1,58.31,0c1.79-.22,3.57-.42,5.36-.62Zm-.37,5.92c-.11,1.82-.23,3.63-.31,5.39a232.68,232.68,0,0,1-33.85-1.79,233.16,233.16,0,0,1-58.31,0,233.32,233.32,0,0,1-58.33,0,233.4,233.4,0,0,1-58.34,0,233,233,0,0,1-34.78,1.76c-.06-1.73-.12-3.51-.17-5.33a230,230,0,0,1,35,1.76,232,232,0,0,1,58.34,0,231.9,231.9,0,0,1,58.33,0,231.75,231.75,0,0,1,58.31,0,230.07,230.07,0,0,1,34.16-1.79Zm-.4,7.54c-.06,1-.08,2-.11,2.9l-4.48-.51a235.07,235.07,0,0,1-58.31,0A235.31,235.31,0,0,1,140,287a235.23,235.23,0,0,1-58.33,0,235.31,235.31,0,0,1-58.34,0c-1.84.22-3.69.42-5.53.62,0-1,0-2,0-3.09,1.87.17,3.71.39,5.58.62a234.35,234.35,0,0,1,58.34,0,234.27,234.27,0,0,1,58.33,0,234.35,234.35,0,0,1,58.34,0,234.11,234.11,0,0,1,58.31,0c1.53-.2,3.06-.37,4.59-.54Zm-.23,5.84c0,1.9-.08,3.72-.08,5.39a227.54,227.54,0,0,1-33.45-1.79,233.16,233.16,0,0,1-58.31,0,233.32,233.32,0,0,1-58.33,0,233.4,233.4,0,0,1-58.34,0,236,236,0,0,1-34.58,1.79c0-1.56,0-3.37-.06-5.39a236.54,236.54,0,0,1,34.64,1.79,232,232,0,0,1,58.34,0,231.9,231.9,0,0,1,58.33,0,231.75,231.75,0,0,1,58.31,0A230.09,230.09,0,0,1,261,290.49Zm-.11,7.6c0,1,0,1.93,0,2.81-1.42-.15-2.83-.32-4.28-.49a234.59,234.59,0,0,1-58.31,0,234.83,234.83,0,0,1-58.34,0,234.75,234.75,0,0,1-58.33,0,234.83,234.83,0,0,1-58.34,0c-1.87.23-3.71.43-5.58.63a1.14,1.14,0,0,0,0-.26A24.34,24.34,0,0,0,17.9,298c1.81.2,3.63.4,5.44.62a233.4,233.4,0,0,1,58.34,0,233.32,233.32,0,0,1,58.33,0,233.4,233.4,0,0,1,58.34,0,233.16,233.16,0,0,1,58.31,0c1.42-.17,2.83-.34,4.25-.48Zm.14,5.78a24.93,24.93,0,0,0,.4,3.49,6,6,0,0,1,.11,1.9,233,233,0,0,1-34.07-1.79,231.75,231.75,0,0,1-58.31,0,231.9,231.9,0,0,1-58.33,0,232,232,0,0,1-58.34,0,232.56,232.56,0,0,1-34.33,1.79,33,33,0,0,1-.54-5.36,235.5,235.5,0,0,1,34.87,1.76,232,232,0,0,1,58.34,0,231.9,231.9,0,0,1,58.33,0,231.75,231.75,0,0,1,58.31,0,230.42,230.42,0,0,1,33.56-1.79Zm.12,7.57a26.36,26.36,0,0,1-.91,2.78l-3.6-.42a234.11,234.11,0,0,1-58.31,0,234.35,234.35,0,0,1-58.34,0,234.27,234.27,0,0,1-58.33,0,234.35,234.35,0,0,1-58.34,0l-3.91.45c-.31-1-.6-1.9-.82-2.84,1.58.17,3.14.34,4.73.54a233.4,233.4,0,0,1,58.34,0A233.32,233.32,0,0,1,140,312a233.4,233.4,0,0,1,58.34,0,233.16,233.16,0,0,1,58.31,0c1.5-.2,3-.37,4.51-.51Zm-2,5.78a42.94,42.94,0,0,0-1.85,5.48,234.85,234.85,0,0,1-29.79-1.85,231.75,231.75,0,0,1-58.31,0,231.9,231.9,0,0,1-58.33,0,232,232,0,0,1-58.34,0,236.38,236.38,0,0,1-28.57,1.85c-.35-.6-.71-1.2-1.17-1.85a24.19,24.19,0,0,1-2.12-3.63A236.39,236.39,0,0,1,52.51,319a232,232,0,0,1,58.34,0,231.9,231.9,0,0,1,58.33,0,231.75,231.75,0,0,1,58.31,0,233.15,233.15,0,0,1,31.64-1.82Zm-2.39,8.11a18.49,18.49,0,0,0-.19,1.84,233.71,233.71,0,0,1-58.2,0,233.4,233.4,0,0,1-58.34,0,233.32,233.32,0,0,1-58.33,0,234,234,0,0,1-56.16.26,8.76,8.76,0,0,0-.48-2.3,233.84,233.84,0,0,1,56.64.2,234.75,234.75,0,0,1,58.33,0,234.83,234.83,0,0,1,58.34,0,234.59,234.59,0,0,1,58.31,0Zm-.08,5.25a18.43,18.43,0,0,0,1.59,5.49,231.91,231.91,0,0,1-30.76-1.84,231.75,231.75,0,0,1-58.31,0,231.9,231.9,0,0,1-58.33,0,232,232,0,0,1-58.34,0,234.81,234.81,0,0,1-31,1.84,50.75,50.75,0,0,1,2.92-4.73,3.34,3.34,0,0,0,.51-.74,231.85,231.85,0,0,1,27.55,1.82,232,232,0,0,1,58.34,0,231.9,231.9,0,0,1,58.33,0,231.75,231.75,0,0,1,58.31,0,234.1,234.1,0,0,1,29.17-1.84Zm2.81,7.79c.53,1,1,1.84,1.33,2.67-1.36-.15-2.75-.32-4.14-.49a233.16,233.16,0,0,1-58.31,0,233.4,233.4,0,0,1-58.34,0,233.32,233.32,0,0,1-58.33,0,233.4,233.4,0,0,1-58.34,0c-1.36.17-2.69.32-4.05.46.31-.82.65-1.7,1.1-2.64l2.95.34a234.83,234.83,0,0,1,58.34,0,234.75,234.75,0,0,1,58.33,0,234.83,234.83,0,0,1,58.34,0,234.59,234.59,0,0,1,58.31,0l2.81-.34ZM262,344a10.25,10.25,0,0,1,.48,5.33,229.06,229.06,0,0,1-35-1.76,231.75,231.75,0,0,1-58.31,0,231.9,231.9,0,0,1-58.33,0,232,232,0,0,1-58.34,0,230.87,230.87,0,0,1-34.22,1.79,17.25,17.25,0,0,1,.17-5.39,236.93,236.93,0,0,1,34.05,1.79,232,232,0,0,1,58.34,0,231.9,231.9,0,0,1,58.33,0,231.75,231.75,0,0,1,58.31,0A230.55,230.55,0,0,1,262,344Zm-.28,7.48a19.1,19.1,0,0,0-1.28,2.84c-1.25-.12-2.5-.29-3.77-.43a233.16,233.16,0,0,1-58.31,0,233.4,233.4,0,0,1-58.34,0,233.32,233.32,0,0,1-58.33,0,233.4,233.4,0,0,1-58.34,0c-1.28.14-2.52.31-3.8.46-.23-.88-.51-1.82-.79-2.81,1.53.14,3.06.34,4.59.51a234.83,234.83,0,0,1,58.34,0,234.75,234.75,0,0,1,58.33,0,234.83,234.83,0,0,1,58.34,0,234.59,234.59,0,0,1,58.31,0c1.7-.2,3.37-.4,5-.57Zm-1.59,5.84c0,1.87,0,3.74.17,5.44a235.88,235.88,0,0,1-32.8-1.78,234.59,234.59,0,0,1-58.31,0,234.75,234.75,0,0,1-58.33,0,234.83,234.83,0,0,1-58.34,0A238.62,238.62,0,0,1,18,362.78a11.21,11.21,0,0,1,1.16-3.49,5.19,5.19,0,0,0,.65-1.93,238.42,238.42,0,0,1,32.66,1.82,233.4,233.4,0,0,1,58.34,0,233.32,233.32,0,0,1,58.33,0,233.16,233.16,0,0,1,58.31,0,238,238,0,0,1,32.63-1.82Zm.42,7.66a22,22,0,0,0,.6,2.8c-1.48-.14-3-.31-4.48-.51a233.16,233.16,0,0,1-58.31,0,233.4,233.4,0,0,1-58.34,0,233.32,233.32,0,0,1-58.33,0,233.4,233.4,0,0,1-58.34,0c-1.81.23-3.63.43-5.44.63a21.26,21.26,0,0,1-.06-3.09c1.81.2,3.66.39,5.5.62a234.83,234.83,0,0,1,58.34,0,234.75,234.75,0,0,1,58.33,0,234.83,234.83,0,0,1,58.34,0,234.59,234.59,0,0,1,58.31,0c1.3-.14,2.61-.31,3.88-.45Zm1.67,5.78c.37,1.36.74,3.26,1.11,5.33a233.91,233.91,0,0,1-35.83-1.73,234.59,234.59,0,0,1-58.31,0,234.75,234.75,0,0,1-58.33,0,234.83,234.83,0,0,1-58.34,0,234.16,234.16,0,0,1-34.16,1.76,29.54,29.54,0,0,0-.2-5.39,239.79,239.79,0,0,1,34.36,1.79,233.4,233.4,0,0,1,58.34,0,233.32,233.32,0,0,1,58.33,0,233.16,233.16,0,0,1,58.31,0,233.69,233.69,0,0,1,34.72-1.76Zm1.42,7.28c.2,1.17.37,2.33.54,3.43-2.52-.22-5-.51-7.51-.82a233.16,233.16,0,0,1-58.31,0,233.4,233.4,0,0,1-58.34,0,233.32,233.32,0,0,1-58.33,0,233.4,233.4,0,0,1-58.34,0c-2.15.28-4.31.51-6.44.71a14.84,14.84,0,0,1,.8-2.61c.08-.17.14-.37.23-.54,1.78.17,3.6.37,5.41.6a234.83,234.83,0,0,1,58.34,0,234.75,234.75,0,0,1,58.33,0,234.83,234.83,0,0,1,58.34,0,234.59,234.59,0,0,1,58.31,0c2.32-.28,4.65-.54,7-.77Zm.88,6.15a39,39,0,0,1,.31,3.95c0,.31,0,.73.06,1.27a233.07,233.07,0,0,1-37.39-1.67,234.59,234.59,0,0,1-58.31,0,234.75,234.75,0,0,1-58.33,0,234.83,234.83,0,0,1-58.34,0,237.81,237.81,0,0,1-37,1.7c.28-1.93.56-3.71.85-5.27a233.29,233.29,0,0,1,36.17,1.73,233.4,233.4,0,0,1,58.34,0,233.32,233.32,0,0,1,58.33,0,233.16,233.16,0,0,1,58.31,0,235.55,235.55,0,0,1,37-1.71Zm.54,7.12c.08,1,.23,2.3.37,3.66q-4.38-.39-8.76-.94a233.16,233.16,0,0,1-58.31,0,233.4,233.4,0,0,1-58.34,0,233.32,233.32,0,0,1-58.33,0,233.4,233.4,0,0,1-58.34,0c-2.86.37-5.7.65-8.56.91.14-1.22.31-2.44.45-3.6,2.7.23,5.42.54,8.11.88a232,232,0,0,1,58.34,0,231.9,231.9,0,0,1,58.33,0,232,232,0,0,1,58.34,0,231.75,231.75,0,0,1,58.31,0c2.81-.37,5.58-.65,8.39-.91Zm.65,6.32c.17,1.65.37,3.38.54,5.1a233.94,233.94,0,0,1-38.75-1.61,233.16,233.16,0,0,1-58.31,0,233.32,233.32,0,0,1-58.33,0,233.4,233.4,0,0,1-58.34,0A236.92,236.92,0,0,1,14,402.8c.17-1.67.34-3.4.51-5.16a237.36,237.36,0,0,1,38,1.68,233.4,233.4,0,0,1,58.34,0,233.32,233.32,0,0,1,58.33,0,233.16,233.16,0,0,1,58.31,0,232.93,232.93,0,0,1,38.21-1.65Zm.74,6.95c.14,1.33.25,2.63.37,3.88-3.38-.28-6.75-.62-10.15-1.05a233.16,233.16,0,0,1-58.31,0,233.4,233.4,0,0,1-58.34,0,233.32,233.32,0,0,1-58.33,0,233.4,233.4,0,0,1-58.34,0q-4.93.65-9.86,1c.08-1.19.19-2.49.31-3.85,3.17.28,6.38.59,9.55,1a232,232,0,0,1,58.34,0,231.9,231.9,0,0,1,58.33,0,232,232,0,0,1,58.34,0,231.75,231.75,0,0,1,58.31,0q4.89-.64,9.78-1Zm.59,6.49c.15,1.84.23,3.46.23,4.62v.4a234.31,234.31,0,0,1-39.77-1.59,234.11,234.11,0,0,1-58.31,0,234.27,234.27,0,0,1-58.33,0,234.35,234.35,0,0,1-58.34,0,233.84,233.84,0,0,1-39.29,1.61,3.77,3.77,0,0,0,0-.62,36.72,36.72,0,0,1,.12-4.45,234.94,234.94,0,0,1,39.2,1.62,234.83,234.83,0,0,1,58.34,0,234.75,234.75,0,0,1,58.33,0,234.59,234.59,0,0,1,58.31,0A232.6,232.6,0,0,1,267,411.11Zm.29,6.8c.05,1.36.17,2.72.31,4-3.66-.28-7.31-.68-11-1.13a233.16,233.16,0,0,1-58.31,0,233.4,233.4,0,0,1-58.34,0,233.32,233.32,0,0,1-58.33,0,233.4,233.4,0,0,1-58.34,0c-3.54.45-7.12.82-10.66,1.11.2-1.54.37-2.89.45-4,3.41.28,6.81.65,10.21,1.08a232,232,0,0,1,58.34,0A231.9,231.9,0,0,1,140,419a232,232,0,0,1,58.34,0,231.75,231.75,0,0,1,58.31,0c3.57-.46,7.11-.83,10.66-1.11Zm.65,6.63c.23,1.73.51,3.38.79,4.88a233.74,233.74,0,0,1-41.27-1.5,233.16,233.16,0,0,1-58.31,0,233.32,233.32,0,0,1-58.33,0,233.4,233.4,0,0,1-58.34,0,235.68,235.68,0,0,1-40.93,1.53c.25-1.7.51-3.38.73-4.93a235.16,235.16,0,0,1,40.2,1.55,235.8,235.8,0,0,1,58.34,0,235.72,235.72,0,0,1,58.33,0,235.55,235.55,0,0,1,58.31,0A230.44,230.44,0,0,1,268,424.54Zm1.11,6.61c.08.51.17,1,.25,1.44.09.6.25,1.59.45,2.9-4.36-.29-8.76-.71-13.12-1.28a233.16,233.16,0,0,1-58.31,0,233.4,233.4,0,0,1-58.34,0,233.32,233.32,0,0,1-58.33,0,233.4,233.4,0,0,1-58.34,0c-4.25.54-8.48,1-12.73,1.25.23-1.39.46-2.84.68-4.28,4,.31,8,.7,12.05,1.22a232,232,0,0,1,58.34,0,231.9,231.9,0,0,1,58.33,0,232,232,0,0,1,58.34,0,231.75,231.75,0,0,1,58.31,0c4.14-.54,8.28-.94,12.42-1.25Zm1,6.89c.2,1.39.43,2.94.66,4.65a234,234,0,0,1-43.29-1.39,234.11,234.11,0,0,1-58.31,0,234.27,234.27,0,0,1-58.33,0,234.35,234.35,0,0,1-58.34,0,235.78,235.78,0,0,1-43.06,1.41c.23-1.44.48-3,.77-4.7a234.79,234.79,0,0,1,42.29,1.44,235.8,235.8,0,0,1,58.34,0,235.72,235.72,0,0,1,58.33,0,235.55,235.55,0,0,1,58.31,0A233.05,233.05,0,0,1,270.12,438Zm.88,6.37c.2,1.48.4,3,.6,4.6-5-.31-10-.8-14.94-1.42a232.22,232.22,0,0,1-58.31,0,232.45,232.45,0,0,1-58.34,0,232.37,232.37,0,0,1-58.33,0,232.45,232.45,0,0,1-58.34,0Q16,448.52,8.68,449c.15-1.53.29-2.78.4-3.63,0-.28.09-.6.11-.94,4.74.32,9.44.77,14.15,1.37a232,232,0,0,1,58.34,0,231.9,231.9,0,0,1,58.33,0,232,232,0,0,1,58.34,0,231.75,231.75,0,0,1,58.31,0c4.79-.6,9.58-1,14.34-1.37Zm.94,7.12c.17,1.47.34,3,.51,4.45a236.5,236.5,0,0,1-45-1.3,234.11,234.11,0,0,1-58.31,0,234.27,234.27,0,0,1-58.33,0,234.35,234.35,0,0,1-58.34,0A236.13,236.13,0,0,1,8.06,456c.11-1.64.26-3.15.37-4.51a234.68,234.68,0,0,1,44.08,1.33,235.31,235.31,0,0,1,58.34,0,235.23,235.23,0,0,1,58.33,0,235.07,235.07,0,0,1,58.31,0,233.55,233.55,0,0,1,44.45-1.3Zm.71,6.15c.19,1.67.37,3.26.54,4.79-5.5-.31-11-.79-16.53-1.5a231.75,231.75,0,0,1-58.31,0A232,232,0,0,1,140,461a231.9,231.9,0,0,1-58.33,0,232,232,0,0,1-58.34,0q-7.9,1-15.82,1.44c.14-1.61.26-3.2.4-4.7,5.13.31,10.26.79,15.42,1.44a232.92,232.92,0,0,1,58.34,0,232.85,232.85,0,0,1,58.33,0,232.92,232.92,0,0,1,58.34,0,232.69,232.69,0,0,1,58.31,0c5.33-.68,10.66-1.16,16-1.47Zm.76,7.31c.17,1.62.26,3.06.34,4.26a233.92,233.92,0,0,1-46.26-1.2,233.16,233.16,0,0,1-58.31,0,233.32,233.32,0,0,1-58.33,0,233.4,233.4,0,0,1-58.34,0A232,232,0,0,1,7,469.3l.34-4.36a236.34,236.34,0,0,1,45.19,1.27,235.31,235.31,0,0,1,58.34,0,235.23,235.23,0,0,1,58.33,0,235.07,235.07,0,0,1,58.31,0A233.57,233.57,0,0,1,273.41,465Zm.4,6v.4c0,1.19.11,2.75.25,4.51q-8.67-.46-17.4-1.56a232.22,232.22,0,0,1-58.31,0,232.45,232.45,0,0,1-58.34,0,232.37,232.37,0,0,1-58.33,0,232.45,232.45,0,0,1-58.34,0q-8.46,1.06-16.89,1.53c.11-1.62.25-3.23.39-4.85,5.5.31,11,.8,16.5,1.51a232,232,0,0,1,58.34,0,231.9,231.9,0,0,1,58.33,0,232,232,0,0,1,58.34,0,231.75,231.75,0,0,1,58.31,0c5.73-.74,11.45-1.22,17.15-1.54Zm.51,7.46c.14,1.3.31,2.69.48,4.11a234,234,0,0,1-47.31-1.13,234.11,234.11,0,0,1-58.31,0,234.27,234.27,0,0,1-58.33,0,234.35,234.35,0,0,1-58.34,0A232,232,0,0,1,5.85,482.6c.11-1.36.25-2.78.37-4.2a234.23,234.23,0,0,1,46.29,1.22,232,232,0,0,1,58.34,0,231.9,231.9,0,0,1,58.33,0,231.75,231.75,0,0,1,58.31,0,231.46,231.46,0,0,1,46.83-1.16Zm.68,5.87c.23,1.67.45,3.37.65,5-6.32-.28-12.64-.79-19-1.61a232.22,232.22,0,0,1-58.31,0,232.45,232.45,0,0,1-58.34,0,232.37,232.37,0,0,1-58.33,0,232.45,232.45,0,0,1-58.34,0c-6,.76-12.1,1.3-18.14,1.59.17-1.59.31-3.24.48-5,5.9.31,11.76.82,17.66,1.55a234.35,234.35,0,0,1,58.34,0,234.27,234.27,0,0,1,58.33,0,234.35,234.35,0,0,1,58.34,0,234.11,234.11,0,0,1,58.31,0c6.12-.76,12.25-1.3,18.34-1.58Zm1,7.62c.17,1.36.34,2.64.48,3.86a231.93,231.93,0,0,1-49-1,233.16,233.16,0,0,1-58.31,0,233.32,233.32,0,0,1-58.33,0,233.4,233.4,0,0,1-58.34,0,232.2,232.2,0,0,1-48.08,1.08c.17-1.22.31-2.55.48-4A233.18,233.18,0,0,1,52.51,493a232.45,232.45,0,0,1,58.34,0,232.37,232.37,0,0,1,58.33,0,232.22,232.22,0,0,1,58.31,0A233.51,233.51,0,0,1,276,492Zm.68,5.7a46.84,46.84,0,0,1,.34,5.07v.06q-10.15-.37-20.35-1.64a235.07,235.07,0,0,1-58.31,0,235.31,235.31,0,0,1-58.34,0,235.23,235.23,0,0,1-58.33,0,235.31,235.31,0,0,1-58.34,0c-6.75.82-13.49,1.39-20.24,1.64l.34-1.36a30.89,30.89,0,0,0,.74-3.74c6.38.28,12.78.82,19.16,1.61a234.35,234.35,0,0,1,58.34,0,234.27,234.27,0,0,1,58.33,0,234.35,234.35,0,0,1,58.34,0,234.11,234.11,0,0,1,58.31,0q10-1.28,20-1.64Zm.54,7.8a22.27,22.27,0,0,1,0,3.68,233.19,233.19,0,0,1-49.75-.94,233.16,233.16,0,0,1-58.31,0,233.32,233.32,0,0,1-58.33,0,233.4,233.4,0,0,1-58.34,0A233.3,233.3,0,0,1,3,509.13a16.41,16.41,0,0,1-.23-3.68,233.47,233.47,0,0,1,49.78.93,232,232,0,0,1,58.34,0,231.9,231.9,0,0,1,58.33,0,231.75,231.75,0,0,1,58.31,0,232.91,232.91,0,0,1,49.72-.93ZM277,511a14.09,14.09,0,0,1-2.27,5.07c-6-.28-12-.82-18-1.55a235.07,235.07,0,0,1-58.31,0,235.31,235.31,0,0,1-58.34,0,235.23,235.23,0,0,1-58.33,0,235.31,235.31,0,0,1-58.34,0c-5.67.7-11.37,1.21-17,1.5a15.83,15.83,0,0,1-2.83-5c6.63.25,13.24.82,19.87,1.64a233.4,233.4,0,0,1,58.34,0,233.32,233.32,0,0,1,58.33,0,233.4,233.4,0,0,1,58.34,0,233.16,233.16,0,0,1,58.31,0c6.77-.85,13.52-1.39,20.3-1.67Zm-4.34,7.48a28.07,28.07,0,0,1-7,4.77,232,232,0,0,1-38.13-1.68,233.16,233.16,0,0,1-58.31,0,233.32,233.32,0,0,1-58.33,0,233.4,233.4,0,0,1-58.34,0,236.54,236.54,0,0,1-36.63,1.73,36.15,36.15,0,0,1-7.31-4.9,232.35,232.35,0,0,1,43.94,1.36,232,232,0,0,1,58.34,0,231.9,231.9,0,0,1,58.33,0,231.75,231.75,0,0,1,58.31,0,231.79,231.79,0,0,1,45.13-1.28Zm-13,7.2a82.73,82.73,0,0,1-12.21,3.18,232.33,232.33,0,0,1-49.1-1,233.4,233.4,0,0,1-58.34,0,233.32,233.32,0,0,1-58.33,0,235.2,235.2,0,0,1-44,1.37C31.84,528.18,26.8,527.07,23,526l.37,0a234.35,234.35,0,0,1,58.34,0,234.27,234.27,0,0,1,58.33,0,234.35,234.35,0,0,1,58.34,0,234.11,234.11,0,0,1,58.31,0c1-.11,2-.25,3-.37Zm-36.59,7c-12.44,1.64-24.78,2.89-36.48,3.85-5.81-.28-11.63-.79-17.41-1.53a231.9,231.9,0,0,1-58.33,0q-8.94,1.15-17.83,1.56c-11.6-1.1-23.67-2.49-34.76-4a233,233,0,0,1,52.59.65,231.9,231.9,0,0,1,58.33,0,233,233,0,0,1,53.89-.51Zm-51.82,5c-9.83.62-19,1-27.1,1.33a234,234,0,0,1,27.1-1.33Zm-33.76,1.53c-7.65.08-18.88-.48-31.46-1.5a233.47,233.47,0,0,1,31.46,1.5Z" transform="translate(-2.71)"/><path id="design2_front" data-name="design2 front" class="cls-3" d="M244.58,95h3a212.45,212.45,0,0,0,2,23s8.62,18.73,15,26.81,9.47,17.63,8,22.31c0,0,6.09,5-2.72,17,0,0-2,37-5.05,58.59s-4.87,57.94-3.37,64.69-9.75,17.23-2.44,30.19,1.31,13.29,1.14,18.57.36,10.85,1.5,12.92,3.17,15.76,3.17,19.14,2.44,21.37,2.44,27.55,1.3,12.56,2.07,16.86,4.48,31.7,4.48,38.81,3.4,26.82,3.2,31.32,6.18,20.07-32.26,26.62l-.17,0ZM33.8,95h.91v433.7c-7.94-1.53-14.09-3.12-17.21-4.59-14.63-7-16.1-15.56-14.06-22.68s4.51-48,5.64-56.07,4.51-26.62,4.11-29.82,2.27-31.86,4.51-36.74-1.87-13.32,1.5-19.5-7.31-9.55,5.25-28c0,0,3.37-3.37-1.68-10.49s-5.44-16.58-5-20.07S17.33,259,16,247.92s-6.21-57.21-6.21-57.21S5.68,176.09,5.51,172s-2.07-7.68,1.67-15,24.58-37.33,26.25-49.49A87.85,87.85,0,0,0,33.8,95Z" transform="translate(-2.71)"/><path id="design1_front" data-name="design1 front" class="cls-4" d="M33.71,92.15h3.83V529.23c-2-.37-3.88-.74-5.67-1.11v-415a25.16,25.16,0,0,0,1.56-5.58,103.85,103.85,0,0,0,.28-15.34Zm210.87,0h2.89c.06,1.9.12,3.77.2,5.67h-.25v431c-.85.17-1.76.34-2.67.48l-3,.51V92.15Z" transform="translate(-2.71)"/><path id="sleevebon_front" data-name="sleevebon front" class="cls-3" d="M269.87,184.08S264,171.78,256.49,163,239.23,120.78,237,95.3c-1.45-16.5,2.72-57.37,5.86-83.42l1.17.17s11.79.45,10.68,5.81S243,72.79,249.54,118c0,0,8.62,18.73,15,26.81s9.47,17.63,8,22.31c0,0,6.09,5-2.72,17Zm-261.3,2s5.95-8.62,12.05-15.84,19.87-36.94,22.31-58.68-1.51-65.25-2.81-74.44S37,16.36,37.82,13.72h0a4.47,4.47,0,0,1-1.27,0c-3.49-.45-9.67,2.07-9.5,4.7s1.7,9.19,2.84,21.92,5.24,55,3.54,67.15S11,149.67,7.18,157s-1.87,10.86-1.67,15c.11,2.61,1.81,9.49,3.06,14.14Z" transform="translate(-2.71)"/><path id="number_front" data-name="number front" d="M95.81,317.84V305.39l25.89-23.75V278.2L120,276.45h-7.71l-1.76,1.75v5.35H95.81V272.94l8.56-8.56h23.52l8.56,8.56v14.13l-17,16.95h17v13.82Zm39.41-1.3V305.32H116.67l18.48-18.49V273.24l-7.57-7.56H104.83l-7.72,7.71v8.86h12.15v-4.42l2.52-2.53h8.78l2.44,2.45v4L97.34,305.62v10.92Zm-36.43-1.68v-8.24l25.9-23.83v-6l-3.29-3.28H110.86l-3.29,3.28v3.82H98.79v-6.11l7-7.1h20.7l7,7v11.54l-21,21h21v7.94Zm50,3v-12h6.72V282.79h-6.72v-8.48l9.93-9.93h11.46v41.47h5.34v12Zm25.51-1.3v-9.46H168.9v-41.4h-10L150,274.54v6.95h6.72v25.59H150v9.46Zm-22.53-1.68v-6.11h6.72V279.89h-6.72v-4.28l8.25-8.25h7.17v41.39h5.35v6.11Z" transform="translate(-2.71)"/><path id="neck_front" data-name="neck front" class="cls-3" d="M51,8.11s.68,9.83,3.2,17.06,6.46,22.62,9.27,35.18c10.43,46.6,34.89,59.19,83.08,60.24,12.73.25,48.65-3.18,62.54-38.16,11.45-28.86,17.34-58.42,20.6-75.2-8.39-4.76-12.61-10.35-23.16-5.13-15.19,7.51-22.7,12.19-64.88,14.26S88,7.82,75.16,2.18,52.2,6.32,51,8.11ZM64.13,10.8s43.31,19.79,77.44,16.78,52.33-5.81,73.34-18.37c0,0-2.36,32-10.61,52.22s-15.56,48.18-62.61,47.05c0,0-40.88,3.57-54.57-25.31,0,0-12.27-19.5-16.58-41.44S64.7,19.61,64.13,10.8Z" transform="translate(-2.71)"/></g></g></svg>