<svg xmlns="http://www.w3.org/2000/svg" viewBox="0 0 245.87 228.15"><defs><style></style></defs><g id="Layer_2" data-name="Layer 2"><g id="Layer_1-2" data-name="Layer 1"><g id="Layer_2-2" data-name="Layer 2"><g id="Layer_1-2-2" data-name="Layer 1-2"><g id="tshirt_color" data-name="tshirt color"><path class="cls-1" d="M199,106.4c-2.34-2.19-2.66-15-7.59-16.33-4.92,7.89,1.16,118.45-.71,123-1.41,10.51-68.34,23.55-131.43,6.78-2.79-.91-7.86-2-9.27-4.36,2.72-9.6,6.46-98.13,1.31-121.23-2.39,3.3-4.2,7.25-7.15,10.26,0,0-25.93,2-43.82-15.78,0,0,11.93-29.26,16.13-37.48a70.51,70.51,0,0,1,8.3-17c6.4-9.47,15.07-13.34,26.4-16C82.26,10.77,86,4.2,95.24.58c3.2,4.27,15,7.21,22.77,7.89C135.89,10.11,151.35,0,151.66.25a82.92,82.92,0,0,0,10.87,6.58c13.24,6,28.5,6.44,41.49,13.05,0,0,17.4,4,27.56,37.9l14,33.53S230.34,109.91,199,106.4Z"/></g><path class="cls-2" d="M37.14,22.35s15,44.91,13.43,71.91"/><path class="cls-2" d="M206.78,21.37s-16.47,45.69-16.12,68.7"/><path class="cls-2" d="M85.51,5.59c1.4,5.92,8.76,18.74,29.79,20.05,29.45.66,40.3-17,41.71-21.36"/><path class="cls-2" d="M90,2.63c1.4,5.92,7.36,17.42,29.45,18.08C144,19.07,151.7,6.39,153.11,2"/><path class="cls-3" d="M123,9.76h-7.31v6.46H123Z"/><path class="cls-2" d="M196.64,101.26s27.72,3.29,46.27-16.11"/><g id="tshirt_shade" data-name="tshirt shade"><path class="cls-4" d="M2.44,81.2S8,97.3,46.6,99.93"/><path class="cls-5" d="M11.11,70.26C14.79,81,21.78,101.78,44.17,96.94,50.09,95.6,26,91.26,11.11,70.26Z"/><path class="cls-5" d="M210.66,33.05c-11.43,10.1-22.51,31.72-19.07,32.7C195.28,66.81,197.51,47.42,210.66,33.05Z"/><path class="cls-5" d="M208.37,33.26c-13.67,13-19.91,34.73-23.55,33.16S200.26,39.58,208.37,33.26Z"/><path class="cls-5" d="M204.29,36.2c-12.48,8-24.53,22.37-21.68,24.69S188.59,48.78,204.29,36.2Z"/><path class="cls-5" d="M25,41c-4.32,6.9-12.65,20.15.59,28.9C29,72.19,20.12,58.26,25,41Z"/><path class="cls-5" d="M78.29,139.14c-.29-5.59-12.15-11.8-9.6-15.65,3-4.6,15.62,10.65,18.13,13.15-3.5-16.38-25.29-12.23-25.59-28.38,5.51,5.62,10.82,9.86,18.28,11,.74-9.23-15.1-10.71-20.1-16.39a47.1,47.1,0,0,1-4-5c-1.49-2.05-3-4.29-4.27-6.06.31,1,.61,2.1.91,3.19s1.22,3.85,2,6.62c.28.94.54,1.89.75,2.79.5,2.15.85,4.15,1.13,5.85.3,1.91.5,3.43.7,4.35.55,2.55.07,4.58-.09,10-.1,3,.59,6.69.68,10.56.25,12.2-1.14,19.64-2.13,26.68a204.83,204.83,0,0,0-1.69,23.21,18.67,18.67,0,0,0,.4,3.81c.26-20.24,6.49-28.18,5.55-37.7,1.07-.14,4-1.45,5-1.58-.08-4.21.32-7.31-.79-11.38a4.28,4.28,0,0,0,1.63.49C58.67,122.67,75.41,137.39,78.29,139.14Z"/><path class="cls-5" d="M110.85,131.63c5.93,22.59,29,53.67,33.14,50C148.4,177.71,121.71,159.76,110.85,131.63Z"/><path class="cls-5" d="M172.12,108.26c.56-3.4,6.59-7,5.68-9.36-1.06-2.86-8.12,6.2-9.46,7.68,2.88-10,12.73-7,14.12-16.81-3,3.32-5.82,5.81-9.39,6.37.37-5.64,7.89-6.25,10.66-9.63a28.7,28.7,0,0,0,2.26-3c.84-1.22,1.73-2.56,2.47-3.61-.22.6-.44,1.27-.67,1.93s-.86,2.32-1.45,4c-.2.57-.39,1.15-.56,1.69-.41,1.3-.73,2.52-1,3.54s-.51,2.09-.68,2.64c-.44,1.55-.38,2.79-.72,6.09-.19,1.85-.8,4.07-1.14,6.43a113.9,113.9,0,0,0-1.07,16.29c-.14,6.33-.64,10.32-1.06,14.18a14.05,14.05,0,0,1-.48,2.32c1.44-12.35-.86-17.3.33-23.08-.47-.1-1.74-1-2.21-1.06A34.68,34.68,0,0,1,179,108s-.58.32-.81.27C182.54,98.63,173.58,107.26,172.12,108.26Z"/><path class="cls-5" d="M90,140.77c25.5,39.14,78.15,66.55,71.86,73.92S101.55,163.26,90,140.77Z"/><path class="cls-5" d="M75,185.83c16.54,15.38,43.36,28.23,46.26,23.52S100,204.42,75,185.83Z"/><path class="cls-5" d="M31.37,51.52c11.37,19,40.47,41.57,43.2,37.31C77.52,84.26,48.67,74.33,31.37,51.52Z"/><path class="cls-5" d="M30.84,54.61c15,23,46,39.16,42.29,43.5S37.66,67.83,30.84,54.61Z"/><path class="cls-5" d="M34,61.26c7.73,19.62,25.46,40.94,30,37.95S47.58,86.8,34,61.26Z"/></g></g></g></g></g></svg>