<svg width="247" height="229" viewBox="0 0 247 229" fill="none" xmlns="http://www.w3.org/2000/svg">
<path d="M199.053 107.14C196.717 104.95 196.398 92.14 191.461 90.81C186.545 98.7 192.623 209.26 190.757 213.81C189.35 224.32 122.411 237.36 59.3205 220.59C56.5376 219.68 51.4622 218.59 50.0548 216.23C52.7737 206.63 56.5163 118.1 51.3663 95C48.9779 98.3 47.1653 102.25 44.2117 105.26C44.2117 105.26 18.2805 107.26 0.399536 89.48C0.399536 89.48 12.3202 60.22 16.5212 52C18.4917 46.0193 21.2838 40.3046 24.8273 35C31.2248 25.53 39.8934 21.66 51.2277 19C82.4155 11.51 86.1154 4.94002 95.3917 1.32002C98.5905 5.59002 110.437 8.53 118.167 9.21C136.048 10.85 151.508 0.770002 151.818 0.990002C155.25 3.44693 158.883 5.64705 162.683 7.57002C175.926 13.57 191.184 14.01 204.171 20.62C204.171 20.62 221.572 24.62 231.733 58.52L245.754 92.05C245.754 92.05 230.496 110.65 199.053 107.14Z" fill="black" stroke="#5B5459" stroke-width="0.5" stroke-miterlimit="10"/>
<path d="M37.9422 23.09C37.9422 23.09 52.9337 68 51.3663 95L37.9422 23.09Z" fill="black"/>
<path d="M37.9422 23.09C37.9422 23.09 52.9337 68 51.3663 95" stroke="#5B5459" stroke-width="0.5" stroke-miterlimit="10"/>
<path d="M207.583 22.11C207.583 22.11 191.109 67.8 191.461 90.81L207.583 22.11Z" fill="black"/>
<path d="M207.583 22.11C207.583 22.11 191.109 67.8 191.461 90.81" stroke="#5B5459" stroke-width="0.5" stroke-miterlimit="10"/>
<path d="M86.3073 6.33002C87.7148 12.25 95.0719 25.07 116.098 26.38C145.548 27.04 156.403 9.43002 157.81 5.02002" stroke="#5B5459" stroke-width="0.5" stroke-miterlimit="10"/>
<path d="M90.8176 3.36996C92.225 9.28996 98.1853 20.79 120.267 21.45C144.791 19.81 152.5 7.12996 153.908 2.70996" stroke="#5B5459" stroke-width="0.5" stroke-miterlimit="10"/>
<path d="M197.443 102C197.443 102 225.165 105.29 243.707 85.89L197.443 102Z" fill="black"/>
<path d="M197.443 102C197.443 102 225.165 105.29 243.707 85.89" stroke="#5B5459" stroke-width="0.5" stroke-miterlimit="10"/>
<path d="M3.23578 81.9399C3.23578 81.9399 8.84425 98.04 47.3998 100.67L3.23578 81.9399Z" fill="black"/>
<path d="M3.23578 81.9399C3.23578 81.9399 8.84425 98.04 47.3999 100.67" stroke="#5B5459" stroke-width="0.5" stroke-miterlimit="10"/>
<path d="M50.5559 209.81C50.5559 209.81 129.458 240.05 191.813 208.81L50.5559 209.81Z" fill="black"/>
<path d="M50.5559 209.81C50.5559 209.81 129.458 240.05 191.813 208.81" stroke="#5B5459" stroke-width="0.5" stroke-miterlimit="10"/>
<path d="M123.722 10.5H116.408V16.96H123.722V10.5Z" fill="white" stroke="#666666" stroke-width="0.5" stroke-miterlimit="10"/>
<path d="M11.915 71C15.5936 81.78 22.5775 102.52 44.9688 97.68C50.8865 96.34 26.8425 92 11.915 71Z" fill="#1A1A1A"/>
<path d="M25.7763 41.72C21.458 48.62 13.1306 61.87 26.3734 70.62C29.8387 72.93 20.9249 59 25.7763 41.72Z" fill="#1A1A1A"/>
<path d="M211.464 33.79C200.034 43.89 188.955 65.51 192.389 66.49C196.078 67.55 198.306 48.16 211.464 33.79Z" fill="#1A1A1A"/>
<path d="M209.171 34C195.502 47 189.264 68.73 185.618 67.16C181.971 65.59 201.057 40.32 209.171 34Z" fill="#1A1A1A"/>
<path d="M205.088 36.9399C192.612 44.9399 180.564 59.3099 183.411 61.6299C186.258 63.9499 189.392 49.5199 205.088 36.9399Z" fill="#1A1A1A"/>
<path d="M79.0888 139.88C78.8009 134.29 66.9442 128.08 69.4926 124.23C72.4674 119.63 85.1131 134.88 87.6188 137.38C84.1215 121 62.3274 125.15 62.0288 109C67.5413 114.62 72.8512 118.86 80.315 120C81.0507 110.77 65.2062 109.29 60.2055 103.61C58.7566 102.028 57.4209 100.357 56.2071 98.6099C54.725 96.5599 53.2109 94.3199 51.9421 92.5499C52.2513 93.5499 52.5498 94.6499 52.8484 95.7399C53.1469 96.8299 54.0746 99.5899 54.8636 102.36C55.1408 103.3 55.3967 104.25 55.61 105.15C56.1111 107.3 56.463 109.3 56.7402 111C57.0388 112.91 57.2413 114.43 57.4439 115.35C57.9877 117.9 57.5079 119.93 57.348 125.35C57.252 128.35 57.9451 132.04 58.0304 135.91C58.2756 148.11 56.8895 155.55 55.8979 162.59C54.8952 170.293 54.3328 178.041 54.2132 185.8C54.207 187.079 54.3392 188.356 54.6077 189.61C54.8743 169.37 61.1012 161.43 60.1629 151.91C61.2291 151.77 64.1186 150.46 65.1422 150.33C65.0569 146.12 65.4621 143.02 64.3532 138.95C64.8571 139.213 65.4116 139.379 65.9846 139.44C59.4698 123.41 76.2099 138.13 79.0888 139.88Z" fill="#1A1A1A"/>
<path d="M172.919 109C173.484 105.6 179.508 102 178.602 99.64C177.536 96.78 170.477 105.84 169.144 107.32C172.023 97.37 181.875 100.32 183.261 90.51C180.255 93.83 177.44 96.32 173.868 96.88C174.241 91.24 181.758 90.63 184.53 87.25C185.345 86.2918 186.1 85.2902 186.791 84.25C187.633 83.03 188.518 81.69 189.264 80.64C189.041 81.24 188.817 81.91 188.593 82.57C188.369 83.23 187.729 84.89 187.143 86.57C186.94 87.14 186.748 87.72 186.577 88.26C186.172 89.56 185.852 90.78 185.597 91.8C185.341 92.82 185.095 93.89 184.925 94.44C184.477 95.99 184.541 97.23 184.2 100.53C184.008 102.38 183.4 104.6 183.059 106.96C182.31 112.361 181.954 117.804 181.993 123.25C181.854 129.58 181.353 133.57 180.926 137.43C180.828 138.213 180.668 138.989 180.447 139.75C181.886 127.4 179.594 122.45 180.777 116.67C180.308 116.57 179.039 115.67 178.57 115.61C178.752 113.271 179.173 110.953 179.828 108.69C179.828 108.69 179.252 109.01 179.018 108.96C183.336 99.37 174.38 108 172.919 109Z" fill="#1A1A1A"/>
<path d="M111.652 132.37C117.58 154.96 140.675 186.04 144.791 182.37C149.205 178.45 122.506 160.5 111.652 132.37Z" fill="#1A1A1A"/>
<path d="M90.8176 141.51C116.322 180.65 168.974 208.06 162.683 215.43C156.392 222.8 102.354 164 90.8176 141.51Z" fill="#1A1A1A"/>
<path d="M75.8154 186.57C92.353 201.95 119.169 214.8 122.069 210.09C124.97 205.38 100.755 205.16 75.8154 186.57Z" fill="#1A1A1A"/>
<path d="M32.1738 52.26C43.54 71.26 72.638 93.83 75.3676 89.57C78.3211 85 49.4683 75.07 32.1738 52.26Z" fill="#1A1A1A"/>
<path d="M31.6407 55.35C46.6535 78.35 77.6281 94.51 73.9282 98.85C70.2283 103.19 38.4647 68.57 31.6407 55.35Z" fill="#1A1A1A"/>
<path d="M34.7328 62C42.4631 81.62 60.1948 102.94 64.7477 99.95C69.3006 96.96 48.3808 87.54 34.7328 62Z" fill="#1A1A1A"/>
</svg>
