<svg xmlns="http://www.w3.org/2000/svg" xmlns:xlink="http://www.w3.org/1999/xlink" viewBox="0 0 295.73 411.94"><defs><style>.cls-1{isolation:isolate;}.cls-2{fill:#1a3c59;}.cls-3{fill:#222831;}.cls-10,.cls-11,.cls-12,.cls-14,.cls-33,.cls-4,.cls-5,.cls-6,.cls-7,.cls-8,.cls-9{mix-blend-mode:multiply;}.cls-4{fill:url(#linear-gradient);}.cls-5{fill:url(#linear-gradient-2);}.cls-6{fill:url(#linear-gradient-3);}.cls-7{fill:url(#linear-gradient-4);}.cls-8{fill:url(#linear-gradient-5);}.cls-9{fill:url(#linear-gradient-6);}.cls-10{fill:url(#linear-gradient-7);}.cls-11{fill:url(#linear-gradient-8);}.cls-12{fill:url(#linear-gradient-9);}.cls-13{fill:#122f44;}.cls-14{fill:url(#radial-gradient);}.cls-15{fill:url(#linear-gradient-10);}.cls-16{fill:url(#linear-gradient-11);}.cls-17{fill:url(#linear-gradient-12);}.cls-18{fill:url(#linear-gradient-13);}.cls-19{fill:url(#linear-gradient-14);}.cls-20{fill:url(#linear-gradient-15);}.cls-21{fill:url(#linear-gradient-16);}.cls-22{fill:url(#linear-gradient-17);}.cls-23{fill:url(#linear-gradient-18);}.cls-24{fill:url(#linear-gradient-19);}.cls-25{fill:url(#linear-gradient-20);}.cls-26{fill:url(#radial-gradient-2);}.cls-27{fill:url(#radial-gradient-3);}.cls-28{fill:url(#radial-gradient-4);}.cls-29,.cls-30,.cls-31{fill:#fff;}.cls-30{font-size:36px;letter-spacing:0.02em;}.cls-30,.cls-31{font-family:SportingGrotesque-Bold, SportingGrotesque Bold;font-weight:700;}.cls-31{font-size:8.81px;}.cls-32{letter-spacing:-0.04em;}.cls-33{fill:url(#radial-gradient-5);}</style><linearGradient id="linear-gradient" x1="20.95" y1="136.11" x2="90.85" y2="168.04" gradientUnits="userSpaceOnUse"><stop offset="0.12" stop-color="#eef9ff"/><stop offset="0.35" stop-color="#ccd5d9"/><stop offset="0.86" stop-color="#78797a"/><stop offset="1" stop-color="#606060"/></linearGradient><linearGradient id="linear-gradient-2" x1="34.13" y1="152.34" x2="-5.57" y2="70.45" gradientUnits="userSpaceOnUse"><stop offset="0.22" stop-color="#eef9ff"/><stop offset="0.31" stop-color="#e6f1f6"/><stop offset="0.46" stop-color="#d1d9de"/><stop offset="0.65" stop-color="#aeb4b7"/><stop offset="0.88" stop-color="#7e8081"/><stop offset="1" stop-color="#606060"/></linearGradient><linearGradient id="linear-gradient-3" x1="628.96" y1="136.11" x2="698.86" y2="168.04" gradientTransform="matrix(-1, 0, 0, 1, 903.74, 0)" xlink:href="#linear-gradient"/><linearGradient id="linear-gradient-4" x1="642.14" y1="152.34" x2="602.44" y2="70.45" gradientTransform="matrix(-1, 0, 0, 1, 903.74, 0)" xlink:href="#linear-gradient-2"/><linearGradient id="linear-gradient-5" x1="64.03" y1="210.97" x2="74" y2="210.97" gradientUnits="userSpaceOnUse"><stop offset="0" stop-color="#eef9ff"/><stop offset="0.98" stop-color="#636363"/><stop offset="1" stop-color="#606060"/></linearGradient><linearGradient id="linear-gradient-6" x1="672.04" y1="211.44" x2="681.85" y2="211.44" gradientTransform="matrix(-1, 0, 0, 1, 903.74, 0)" xlink:href="#linear-gradient-5"/><linearGradient id="linear-gradient-7" x1="74.09" y1="260.06" x2="64.31" y2="396.71" xlink:href="#linear-gradient-5"/><linearGradient id="linear-gradient-8" x1="682.1" y1="260.06" x2="672.32" y2="396.71" gradientTransform="matrix(-1, 0, 0, 1, 903.74, 0)" xlink:href="#linear-gradient-5"/><linearGradient id="linear-gradient-9" x1="195.06" y1="206.55" x2="165.52" y2="429.78" gradientUnits="userSpaceOnUse"><stop offset="0.17" stop-color="#eef9ff"/><stop offset="0.4" stop-color="#ecf7fd"/><stop offset="0.53" stop-color="#e5eff4"/><stop offset="0.64" stop-color="#d8e1e6"/><stop offset="0.73" stop-color="#c6ced3"/><stop offset="0.81" stop-color="#b0b6b9"/><stop offset="0.89" stop-color="#93979a"/><stop offset="0.96" stop-color="#737475"/><stop offset="1" stop-color="#606060"/></linearGradient><radialGradient id="radial-gradient" cx="147.86" cy="190.83" r="169.88" gradientUnits="userSpaceOnUse"><stop offset="0" stop-color="#eef9ff"/><stop offset="1" stop-color="#606060"/></radialGradient><linearGradient id="linear-gradient-10" x1="56.16" y1="241.17" x2="234.52" y2="237.14" gradientUnits="userSpaceOnUse"><stop offset="0.01" stop-color="#e08f00"/><stop offset="0.52" stop-color="#ffbc36"/><stop offset="0.68" stop-color="#fdb933"/><stop offset="0.79" stop-color="#f8b129"/><stop offset="0.9" stop-color="#eea419"/><stop offset="0.99" stop-color="#e19102"/><stop offset="1" stop-color="#e08f00"/></linearGradient><linearGradient id="linear-gradient-11" x1="58.03" y1="323.92" x2="236.39" y2="319.89" xlink:href="#linear-gradient-10"/><linearGradient id="linear-gradient-12" x1="57.55" y1="302.6" x2="235.91" y2="298.57" xlink:href="#linear-gradient-10"/><linearGradient id="linear-gradient-13" x1="58.48" y1="343.84" x2="236.84" y2="339.82" xlink:href="#linear-gradient-10"/><linearGradient id="linear-gradient-14" x1="57.09" y1="282.12" x2="235.44" y2="278.09" xlink:href="#linear-gradient-10"/><linearGradient id="linear-gradient-15" x1="56.63" y1="261.89" x2="234.99" y2="257.86" xlink:href="#linear-gradient-10"/><linearGradient id="linear-gradient-16" x1="59.1" y1="371.09" x2="237.45" y2="367.06" xlink:href="#linear-gradient-10"/><linearGradient id="linear-gradient-17" x1="59.04" y1="368.66" x2="237.4" y2="364.63" xlink:href="#linear-gradient-10"/><linearGradient id="linear-gradient-18" x1="55.68" y1="219.77" x2="234.04" y2="215.74" xlink:href="#linear-gradient-10"/><linearGradient id="linear-gradient-19" x1="58.85" y1="360.28" x2="237.21" y2="356.26" xlink:href="#linear-gradient-10"/><linearGradient id="linear-gradient-20" x1="55.2" y1="198.48" x2="233.56" y2="194.45" xlink:href="#linear-gradient-10"/><radialGradient id="radial-gradient-2" cx="765.22" cy="134.93" r="147.75" gradientTransform="matrix(-1, 0, 0, 1, 903.74, 0)" gradientUnits="userSpaceOnUse"><stop offset="0.33" stop-color="#ffbc36"/><stop offset="0.54" stop-color="#fdb933"/><stop offset="0.71" stop-color="#f8b129"/><stop offset="0.85" stop-color="#eea419"/><stop offset="0.99" stop-color="#e19102"/><stop offset="1" stop-color="#e08f00"/></radialGradient><radialGradient id="radial-gradient-3" cx="157.21" cy="134.93" r="147.75" gradientTransform="matrix(1, 0, 0, 1, 0, 0)" xlink:href="#radial-gradient-2"/><radialGradient id="radial-gradient-4" cx="147.86" cy="6.6" r="31.57" gradientTransform="matrix(1, 0, 0, 1, 0, 0)" xlink:href="#radial-gradient-2"/><radialGradient id="radial-gradient-5" cx="237.84" cy="391.65" r="142.43" gradientTransform="translate(-51.18 380.7) scale(0.84 0.06)" gradientUnits="userSpaceOnUse"><stop offset="0" stop-color="#9e9d9d"/><stop offset="0.02" stop-color="#a09f9f"/><stop offset="0.32" stop-color="#c9c9c9"/><stop offset="0.6" stop-color="#e7e6e6"/><stop offset="0.83" stop-color="#f9f9f9"/><stop offset="1" stop-color="#fff"/></radialGradient></defs><g class="cls-1"><g id="Layer_2" data-name="Layer 2"><g id="OBJECTS"><g id="color2"><path class="cls-2" d="M230.9,215.18c-2.29,15.15,4.42,52,.19,67.7s5.76,47.75,7.48,55.8,1.34,21.1,1.34,21.1-8.14,10.62-27.39,19.8c-14.66,7-35.78,13.19-64.66,13.19-6.26,0-12.14-.29-17.69-.82C101.93,389.28,82.8,380.47,71,372.76c-10.56-6.92-15.22-13-15.22-13s-.1-3.57,0-8.14a80,80,0,0,1,1.31-13c1.17-5.49,6.19-22.15,7.92-37.17.81-7,.9-13.64-.45-18.63-2.57-9.6-1.08-27.06,0-42.64.66-10,1.12-19.16.23-25.06-.25-1.64-.51-3.53-.79-5.62-2.26-17.21-5.15-47.12-5.15-47.12l-6.72,14C26.08,172,0,158.23,0,158.23S12.66,114.3,14,105.1s.19-58.49,31.64-66.55c22.77-5.83,45.24-18.39,57.15-26.72l.36-.25c4.34-3.05,7.2-5.49,8.08-6.79a3,3,0,0,1,.34-.45,7,7,0,0,1,.68-.75c3.36-3.14,8.66-1,14.9,1.2,6.9,2.5,20.71,2.11,20.71,2.11s13.82.39,20.72-2.11,12.65-4.79,15.92,0,34.13,25.71,65.58,33.76,30.3,57.34,31.64,66.55,14,53.13,14,53.13-26.09,13.8-52.17,18.21l-6.71-14S233.2,200,230.9,215.18Z"/><path class="cls-3" d="M239.88,351.64c-7.81,7.87-38.16,34.47-92,34.47s-84.2-26.6-92-34.47c-.14,4.57,0,8.14,0,8.14s25.32,33,92.06,33,92.06-33,92.06-33S240,356.21,239.88,351.64Z"/><path class="cls-2" d="M55.38,169.74l-3.22,6.7C26.08,172,0,158.23,0,158.23s.87-3,2.18-7.63A247.13,247.13,0,0,0,55.38,169.74Z"/><path class="cls-2" d="M240.35,169.74l3.21,6.7c26.08-4.41,52.17-18.21,52.17-18.21s-.87-3-2.19-7.63A247.2,247.2,0,0,1,240.35,169.74Z"/><path class="cls-4" d="M58.88,162.44l-3.5,7.3-3.22,6.7q-2.52-.44-5-1c2.74-9.31,1.17-19.64-1.68-29.06s-6.85-18.42-9-27.92a1.55,1.55,0,0,1,2.69-1.34,24.59,24.59,0,0,1,2.49,4.08,192.28,192.28,0,0,1,9.14,21.23c.94,2.58,1.86,5.27,3.67,7.35A8.51,8.51,0,0,0,58,152.28C58.32,155.68,58.63,159.07,58.88,162.44Z"/><path class="cls-5" d="M21.22,104.18a1.73,1.73,0,0,0-3.21.31,26.28,26.28,0,0,0-.68,4.68,192.46,192.46,0,0,0,.06,30.18l2.79-22.72a1.72,1.72,0,0,1,3.07-.82A23.4,23.4,0,0,1,25,118.58l6.21,11.11,3.07,5.47c.82,1.47,1.73,4.14,3,5.13-.69-3.24-2.66-6.63-4-9.69q-2.15-5-4.39-10Q25.22,112.34,21.22,104.18Z"/><path class="cls-6" d="M236.85,162.44l3.5,7.3,3.21,6.7q2.52-.44,5-1c-2.73-9.31-1.16-19.64,1.69-29.06s6.85-18.42,9-27.92a1.54,1.54,0,0,0-2.68-1.34,23.31,23.31,0,0,0-2.49,4.08A192.34,192.34,0,0,0,245,142.47c-.94,2.58-1.85,5.27-3.66,7.35a8.48,8.48,0,0,1-3.59,2.46Q237.23,157.38,236.85,162.44Z"/><path class="cls-7" d="M274.51,104.18a1.72,1.72,0,0,1,3.2.31,25.41,25.41,0,0,1,.69,4.68,191.25,191.25,0,0,1-.07,30.18l-2.78-22.72a1.72,1.72,0,0,0-3.07-.82,22.17,22.17,0,0,0-1.74,2.77l-6.22,11.11-3.06,5.47c-.82,1.47-1.74,4.14-3,5.13.68-3.24,2.65-6.63,4-9.69q2.14-5,4.39-10Q270.51,112.34,274.51,104.18Z"/><path class="cls-8" d="M64.59,240.24c.66-10,1.12-19.16.23-25.06-.25-1.64-.51-3.53-.79-5.62q3.42-13.53,7.39-26.93a1.32,1.32,0,0,1,2.56.57C71.14,202.26,67.9,221.26,64.59,240.24Z"/><path class="cls-9" d="M231.14,240.24c-.66-10-1.13-19.16-.24-25.06.25-1.64.52-3.53.79-5.62q-3.27-13-7.09-25.92a1.39,1.39,0,0,0-2.7.6C224.7,203,227.88,221.6,231.14,240.24Z"/><path class="cls-10" d="M85.48,265.43A720.31,720.31,0,0,0,71.17,370.35a1.39,1.39,0,0,1-2.18,1,66.44,66.44,0,0,1-12.88-11.23,1.37,1.37,0,0,1-.32-.85c0-1.11-.06-4.08.05-7.67a80,80,0,0,1,1.31-13c1.17-5.47,6.16-22,7.91-37a1.36,1.36,0,0,1,.06-.29,177.87,177.87,0,0,1,17.84-37A1.39,1.39,0,0,1,85.48,265.43Z"/><path class="cls-11" d="M210.25,265.43a721.68,721.68,0,0,1,14.31,104.92,1.38,1.38,0,0,0,2.17,1,66.65,66.65,0,0,0,12.89-11.23,1.31,1.31,0,0,0,.31-.85c0-1.11.06-4.08-.05-7.67a78.94,78.94,0,0,0-1.3-13c-1.18-5.47-6.16-22-7.91-37a1.37,1.37,0,0,0-.07-.29,177.87,177.87,0,0,0-17.84-37A1.38,1.38,0,0,0,210.25,265.43Z"/><path class="cls-12" d="M212.52,379.58c-14.66,7-35.78,13.19-64.66,13.19-6.26,0-12.14-.29-17.69-.82A581.92,581.92,0,0,0,195.7,225C207,275.65,210.3,327.66,212.52,379.58Z"/><path class="cls-13" d="M216.06,83.74l-10.88,2.71c0,18,10.88,20,10.88,20s10.88-2,10.88-20Z"/><path class="cls-14" d="M291.74,158.22,224,59.11l61.51,102c-.69.3-1.4.62-2.16.94L221.74,64.54l55.94,99.84-2.22.87-56-95.47,50.77,97.44c-.74.27-1.49.54-2.26.8L217,74.81l46,94.82c-.76.25-1.53.49-2.31.71l-46.1-90.7,41.57,92c-.77.22-1.55.42-2.34.62l-41.69-88,37.49,89-2.4.51L209.66,88.68,242.39,172l-5.54-11.56s-.14,1.37-.37,3.67L207.13,92.9l28.65,78.24c-.17,1.7-.36,3.53-.56,5.46L204.57,96.92l29.82,87.45c-.19,1.72-.38,3.45-.56,5.19L202,100.74l30.88,97.33c-.2,1.65-.39,3.27-.58,4.83l-32.92-98.54L231.08,212c-.07.41-.12.83-.18,1.21-.16,1-.27,2.2-.35,3.44L196.73,107.79l34.05,124.59c.13,2.4.3,4.87.46,7.39L194.06,111,232.5,263c0,1.58,0,3.13,0,4.63L191.37,114.06,230.7,282.62c-.15.78-.27,1.61-.36,2.45L188.65,116.9l50.82,236.88L185.93,119.56l46.78,238.2L183.18,122,226,361.4,180.42,124.27l38.9,240.44L177.63,126.34,212.7,367.71,174.84,128.23,206.1,370.41,172,129.92l27.51,242.87L169.23,131.43,193,374.89,166.41,132.74l20.12,244-23-242.84,16.48,244.36L160.73,134.8l12.88,244.66L157.89,135.55l9.27,244.88L155,136.12l5.69,245-8.54-244.62,2.12,245-5-244.84-1.44,245-1.43-248.28-5.05,248.14,2.12-245L135,381.11l5.7-245L128.57,380.43l9.27-244.88L122.12,379.46,135,134.8,115.67,378.22l16.49-244.36-23,242.84,20.12-244L102.7,374.89l23.8-243.46L96.17,372.79l27.52-242.87L89.63,370.41l31.26-242.18L83,367.71l35.06-241.37L76.4,364.71l38.91-240.44L69.74,361.4,112.55,122,63,357.76l46.78-238.2L56.25,353.78l50.81-236.87L65.39,285.1c-.1-.84-.22-1.67-.37-2.45l39.33-168.59L63.22,267.65c0-1.5,0-3,0-4.62l38.44-152L64.48,239.77c.17-2.51.33-5,.47-7.39L99,107.79,65.17,216.62a33.54,33.54,0,0,0-.35-3.44c-.06-.38-.11-.79-.17-1.21L96.36,104.36,63.44,202.91c-.18-1.56-.39-3.17-.57-4.83l30.87-97.34L61.9,189.56c-.2-1.73-.39-3.46-.56-5.18L91.16,96.92,60.51,176.61c-.2-1.93-.39-3.76-.57-5.45L88.6,92.9,59.24,164.12c-.23-2.31-.36-3.68-.36-3.68L53.33,172,86.06,88.68,48.48,173.75q-1.21-.24-2.4-.51l37.49-89-41.69,88c-.79-.2-1.57-.4-2.35-.62l41.58-92L35,170.34c-.78-.22-1.54-.46-2.31-.71l46-94.82L27.8,168l-2.26-.8L76.32,69.78,20.26,165.25,18,164.38,74,64.54,12.33,162l-2.16-.94,61.52-102L4,158.22l-2.08-1L94.27,15.37c3.21-2,6.09-3.84,8.52-5.54l.36-.25c.19-.12.38-.26.55-.39,4-2.87,6.69-5.15,7.53-6.4a3,3,0,0,1,.34-.45,7,7,0,0,1,.68-.75c3.36-3.14,8.66-1,14.9,1.2,6.9,2.5,20.71,2.11,20.71,2.11s13.82.39,20.72-2.11,12.65-4.79,15.92,0c1.38,2,7.72,7,17,12.58l92.35,141.82Z"/></g><g id="color1"><path class="cls-15" d="M64.62,211.84c.07.46.14.91.2,1.34a52.6,52.6,0,0,1,.48,6.91l82.56,48.15,82.56-48.15a52.6,52.6,0,0,1,.48-6.91c.07-.42.13-.88.2-1.34l-83.24,48.54Z"/><path class="cls-16" d="M64.29,305.17l83.57,48.74,83.58-48.74a103.2,103.2,0,0,1-1.36-13.45l-82.22,48-82.22-48c-.06,2.5-.26,5.12-.57,7.79C64.86,301.38,64.59,303.27,64.29,305.17Z"/><path class="cls-17" d="M232.42,270.54l-84.56,49.31L63.3,270.53a49,49,0,0,0,1.32,10.35,28.5,28.5,0,0,1,.67,3.45l82.57,48.16,82.56-48.15a26.86,26.86,0,0,1,.67-3.46A49,49,0,0,0,232.42,270.54Z"/><path class="cls-18" d="M235.45,324.24c-1-4.21-2.17-9-3.12-14L147.86,359.5,63.39,310.24c-1,5-2.07,9.79-3.12,14l87.59,51.08Z"/><path class="cls-19" d="M147.86,311.08l84.61-49.35c-.09-3.47-.27-7.09-.49-10.76L147.86,300,63.74,251c-.22,3.66-.4,7.29-.49,10.76Z"/><path class="cls-20" d="M64.4,241l83.46,48.68L231.33,241c-.22-3.11-.42-6.17-.58-9.11l-82.89,48.34L65,231.87c-.12,2.07-.25,4.2-.4,6.37Z"/><path class="cls-21" d="M212.52,377.58c19.25-9.18,27.39-19.79,27.39-19.79s.17-5.89-.23-12.19l-76.4,44.55C184.43,388.43,200.6,383.28,212.52,377.58Z"/><path class="cls-22" d="M56,345.6c-.09,1.38-.16,2.75-.2,4-.14,4.57,0,8.15,0,8.15s4.66,6.06,15.22,13c11.78,7.71,30.91,16.52,59.15,19.19l2.25.19Z"/><path class="cls-23" d="M62,190.48c.25,2.26.51,4.52.76,6.72l85.1,49.63L233,197.2c.25-2.2.51-4.45.76-6.71l-85.86,50.07Z"/><path class="cls-24" d="M147.86,390.77c3.72,0,7.3-.11,10.75-.3L239.5,343.3a56.16,56.16,0,0,0-.93-6.62c-.4-1.86-1.24-5-2.25-8.95l-88.46,51.59L59.39,327.73c-1,3.93-1.84,7.09-2.24,8.95a56.28,56.28,0,0,0-.93,6.61l80.88,47.17C140.56,390.65,144.14,390.77,147.86,390.77Z"/><path class="cls-25" d="M147.86,220.74l-88.1-51.38c.16,1.52.33,3.19.51,5l87.59,51.08,87.59-51.08c.18-1.78.35-3.45.51-5Z"/><path class="cls-26" d="M0,156.23S26.08,170,52.16,174.44l6.72-14c-.48-6.38-1.12-12.84-2-19.32a269.27,269.27,0,0,0-6.3-33c-.49-1.92-1-3.81-1.55-5.7A104.06,104.06,0,0,1,45.83,89.2c-.9-5.86-.72-11.65,2.17-16.73a24.53,24.53,0,0,1,7.13-7.54c2.84-2.1,6-3.9,9-5.73a132.63,132.63,0,0,0,42.74-41.71l3.83,1.41L108.31,5.68c-9,7.52-35.63,24-62.67,30.88-31.45,8-30.3,57.33-31.64,66.54S0,156.23,0,156.23Z"/><path class="cls-27" d="M295.73,156.23s-26.09,13.8-52.17,18.21l-6.71-14c.48-6.38,1.12-12.84,2-19.32a267.38,267.38,0,0,1,6.29-33c.49-1.92,1-3.81,1.56-5.7A105.79,105.79,0,0,0,249.9,89.2c.9-5.86.71-11.65-2.17-16.73a24.65,24.65,0,0,0-7.13-7.54c-2.85-2.1-6-3.9-9-5.73a132.73,132.73,0,0,1-42.74-41.71L185,18.9l2.43-13.22c9,7.52,35.63,24,62.66,30.88,31.46,8,30.3,57.33,31.64,66.54S295.73,156.23,295.73,156.23Z"/><path class="cls-28" d="M192,9.19c-4-2.87-6.68-5.15-7.52-6.4a3.79,3.79,0,0,0-.34-.45,8.2,8.2,0,0,0-.68-.75c-3.36-3.14-8.67-1-14.9,1.2-6.9,2.5-20.72,2.11-20.72,2.11s-13.81.39-20.71-2.11c-6.24-2.24-11.54-4.34-14.9-1.2a7,7,0,0,0-.68.75,3,3,0,0,0-.34.45c-.84,1.25-3.5,3.53-7.53,6.4l7,3.2c-2.16-7.1,9.25-4.8,15.77-1.73s21.35,2.5,21.35,2.5,14.83.57,21.36-2.5S187.14,5.29,185,12.39Z"/><path class="cls-29" d="M147.86,50.07H128.62a91.3,91.3,0,0,1-20.75-22.3c-2.7-4.09-5.11-8.58-5.45-13.46a16.08,16.08,0,0,1,.37-4.48l.36-.25c4.34-3,7.2-5.49,8.08-6.79a3,3,0,0,1,.34-.45,10.1,10.1,0,0,0-.29,6,24.39,24.39,0,0,0,3.14,6.87C122.73,29.25,133.55,42.26,147.86,50.07Z"/><path class="cls-29" d="M147.86,50.07h19.25a91.68,91.68,0,0,0,20.75-22.3c2.7-4.09,5.1-8.58,5.44-13.46a16.07,16.07,0,0,0-.36-4.48c-.13-.08-.24-.16-.36-.25-4.35-3-7.21-5.49-8.08-6.79a3.79,3.79,0,0,0-.34-.45,10.18,10.18,0,0,1,.29,6,24.67,24.67,0,0,1-3.14,6.87C173,29.25,162.18,42.26,147.86,50.07Z"/><text class="cls-30" transform="matrix(0.99, 0, -0.15, 0.99, 68.02, 142.53)">SPONSOR</text><text class="cls-31" transform="matrix(0.99, 0, -0.15, 0.99, 60.78, 94.93)">C<tspan class="cls-32" x="5.11" y="0">L</tspan><tspan x="8.95" y="0">UB</tspan></text><path class="cls-29" d="M216.06,78.09l-15,3.65c0,24.16,15,26.85,15,26.85s15-2.69,15-26.85Z"/><path class="cls-29" d="M216.06,85.88l-6.91,1.72c0,11.42,6.91,12.68,6.91,12.68S223,99,223,87.6Z"/></g><g id="textcolor"><ellipse id="text_color" data-name="text color" class="cls-33" cx="147.86" cy="403.61" rx="119.15" ry="8.34"/></g></g></g></g></svg>